<?xml version="1.0" encoding="utf-8"?>
<!-- Generator: Adobe Illustrator 24.2.1, SVG Export Plug-In . SVG Version: 6.00 Build 0)  -->
<svg version="1.1" id="Layer_1" xmlns="http://www.w3.org/2000/svg" xmlns:xlink="http://www.w3.org/1999/xlink" x="0px" y="0px"
	 viewBox="0 0 242 21.7" style="enable-background:new 0 0 242 21.7;" xml:space="preserve">
<style type="text/css">
	.st0{fill:#FFFFFF;}
</style>
<path class="st0" d="M0.7,21v-5.5h1.5V6.1H0.7V0.6h14.8V21H0.7z M7.7,15.5H10V6.1H7.7V15.5z"/>
<path class="st0" d="M27,21v-7.7h-3.8V21h-5.5V0.6h14.8V21H27z M23.2,7.9H27V6.1h-3.8V7.9z"/>
<polygon class="st0" points="39.4,21 39.4,6.1 34.8,6.1 34.8,0.6 49.6,0.6 49.6,6.1 44.9,6.1 44.9,21 "/>
<path class="st0" d="M61.1,21v-7.7h-3.8V21h-5.5V0.6h14.8V21H61.1z M57.3,7.9h3.8V6.1h-3.8V7.9z"/>
<polygon class="st0" points="76.3,21 76.3,0.6 81.8,0.6 81.8,15.5 91.1,15.5 91.1,21 "/>
<path class="st0" d="M93.4,21V0.6h14.8V21H93.4z M98.9,15.5h3.8l0-0.4v-9h-3.8V15.5z"/>
<polygon class="st0" points="110.4,21 110.4,0.6 125.2,0.6 125.2,6.1 115.9,6.1 115.9,15.5 119.7,15.5 119.7,9.2 125.2,9.2 
	125.2,21 "/>
<path class="st0" d="M138,21c0-0.2-0.1-0.7-0.2-1.6c-1.7-11-2.6-17.2-2.8-18.8l5.4,0v0.6c0,0.1,0,0.2,1.6,11.2l0,0.3h0.7l0.1-0.3
	c1.4-10.9,1.4-11.1,1.4-11.2V0.7h5.4c-1.5,11.6-2.4,18.7-2.6,20.4H138z"/>
<polygon class="st0" points="152,21 152,15.5 156.6,15.5 156.6,6.1 152,6.1 152,0.6 166.8,0.6 166.8,6.1 162.1,6.1 162.1,15.5 
	166.8,15.5 166.8,21 "/>
<polygon class="st0" points="169,21 169,0.7 183.8,0.7 183.8,6.1 174.5,6.1 174.5,7.9 183.8,7.9 183.8,13.4 174.5,13.4 174.5,15.6 
	183.8,15.6 183.8,21 "/>
<polygon class="st0" points="186.1,21 186.1,0.6 191.6,0.6 191.6,15.6 193.9,15.6 193.9,0.6 199.4,0.6 199.4,15.6 201.7,15.6 
	201.7,15.1 201.7,0.6 207.2,0.6 207.2,21 "/>
<polygon class="st0" points="209.5,21 209.5,0.7 224.3,0.7 224.3,6.1 214.9,6.1 214.9,7.9 224.3,7.9 224.3,13.4 214.9,13.4 
	214.9,15.6 224.3,15.6 224.3,21 "/>
<path class="st0" d="M235.8,21v-7.7H232l0,0.4V21h-5.5V0.6h13.3v7.3h1.5V21H235.8z M232,7.9h2.3V6.1H232V7.9z"/>
<path d="M0.3,0.2h15.5c0,0,0,0,0,0.1v21.1c0,0,0,0,0,0H0.3c0,0,0,0,0,0v-6.2c0,0,0-0.1,0-0.1h1.5V6.5H0.3c0,0,0,0,0,0L0.3,0.2
	C0.3,0.3,0.3,0.2,0.3,0.2z M1.3,1.3v4.2h1.5c0,0,0,0,0,0v9.1c0.8,0.6,2.8,2,6.1,4.2c0.1,0,2,0.4,5.9,1.2V6.6
	c-3.3-2.6-5.1-3.9-5.1-3.9C4.8,1.8,2.2,1.3,1.9,1.3H1.3z M2.8,15.3v0.8c0,0,0,0,0,0H1.3v1.7c2.5-0.7,3.7-1,3.7-1.1
	C3.6,15.8,2.9,15.3,2.8,15.3z M1.3,18.4v1.9h8.9v0c-0.3-0.2-1.8-1.2-4.6-3.1v0C2.8,18,1.3,18.4,1.3,18.4z M4.9,1.3L4.9,1.3
	C5.2,1.3,6.5,1.6,8.8,2c0,0-0.3-0.3-1-0.7H4.9z M7.1,5.5h3.5c0,0,0,0,0,0v10.6c0,0,0,0,0,0H7.1c0,0,0,0,0,0L7.1,5.5
	C7,5.5,7.1,5.5,7.1,5.5z M8.1,6.5v8.7h1.5V6.5H8.1z M8.7,1.3c0,0,0.2,0.2,0.5,0.4c0,0,0.1-0.1,0.4-0.4H8.7z M9.4,1.8
	c0.3,0.2,0.5,0.4,0.5,0.4l0.9-0.9H10C10,1.3,9.8,1.5,9.4,1.8z M10,19.6c0,0,0.2,0.2,0.6,0.4h0v-0.3L10,19.6z M10.1,2.4l0.6,0.4h0
	c0.6-0.6,1.1-1.1,1.5-1.6h-1C11.2,1.3,10.8,1.6,10.1,2.4z M10.9,3l0.5,0.4l2.1-2.1h-0.9C12.1,1.8,11.6,2.4,10.9,3z M10.9,19.8v0.4
	c0,0,0.1,0.1,0.2,0.2h0.4v-0.5L10.9,19.8z M11.7,3.6l0.5,0.4h0c0.9-0.9,1.8-1.8,2.6-2.6v0H14C13.2,2,12.4,2.8,11.7,3.6z M11.8,20
	v0.4h0.7v-0.2C12.5,20.1,12.3,20.1,11.8,20z M12.4,4.1c0,0,0.2,0.1,0.5,0.4l1.9-1.9V1.7C13.8,2.7,13,3.5,12.4,4.1z M12.8,20.2v0.2
	h0.6v-0.1L12.8,20.2z M13.1,4.7l0.5,0.4l1.1-1.2V3C14.3,3.5,13.7,4,13.1,4.7z M13.9,5.2L13.9,5.2c0,0,0.2,0.1,0.5,0.4l0.4-0.5V4.3
	C14.8,4.3,14.5,4.6,13.9,5.2z M14.6,5.8c0.1,0.1,0.2,0.2,0.2,0.2V5.6C14.8,5.6,14.7,5.6,14.6,5.8z"/>
<path d="M17.4,0.2h15.5c0,0,0,0,0,0.1v21.1c0,0,0,0,0,0h-6.2c0,0-0.1,0-0.1,0v-7.6h-3v7.6c0,0,0,0-0.1,0h-6.2c0,0,0,0,0,0L17.4,0.2
	C17.3,0.3,17.3,0.2,17.4,0.2z M18.4,1.3v2.8c4.1-1.9,6.1-2.8,6.2-2.8v0H18.4z M18.4,4.7v12.5c0.1,0.1,1.4,1.2,4,3.2h0.2v-7.6
	c0,0,0-0.1,0-0.1h5c0,0,0,0,0,0.1v7.6h4.2V8.3c0,0-1.9-1.4-5.6-4c-1.8-1.2-2.7-1.9-2.8-2L18.4,4.7z M18.6,18v2.4h0.6v-1.9
	C19,18.4,18.8,18.2,18.6,18z M19.5,18.7v1.6h0.6v-1.2C20,19.2,19.8,19,19.5,18.7z M20.3,19.5v0.9H21V20
	C20.9,19.9,20.6,19.7,20.3,19.5z M21.3,20.2v0.2h0.2C21.5,20.4,21.4,20.3,21.3,20.2z M22.6,5.5h5c0,0,0,0,0,0v3c0,0,0,0,0,0h-5
	c0,0,0,0,0,0L22.6,5.5C22.5,5.5,22.6,5.5,22.6,5.5z M23.6,6.5v1h3v-1H23.6z M24,2.1c0.3,0.2,0.5,0.3,0.5,0.3l1.1-1.1h0
	C24.7,1.8,24.1,2,24,2.1z M24.8,2.6L25.3,3c0.5-0.5,1.1-1,1.7-1.7h-0.9C26.1,1.3,25.7,1.7,24.8,2.6z M25.5,3.2
	C25.8,3.4,26,3.5,26,3.5l2.2-2.2h-0.9C26.6,2,26,2.6,25.5,3.2z M26.3,3.7c0,0,0.2,0.1,0.5,0.4h0c0.9-0.9,1.9-1.8,2.8-2.8h-0.9
	C28.3,1.6,27.5,2.4,26.3,3.7z M27,4.2l0.5,0.3c1.3-1.3,2.4-2.4,3.3-3.3H30C29,2.3,28,3.3,27,4.2z M27.7,4.8c0,0,0.3,0.2,0.6,0.4
	c2.3-2.3,3.5-3.5,3.5-3.5V1.3h-0.6C30.2,2.3,29.1,3.4,27.7,4.8z M28.6,5.3l0.6,0.4C31,3.9,31.9,3,31.9,3V2.1h0
	C31,3,29.9,4.1,28.6,5.3z M29.4,5.9c0,0,0.2,0.1,0.5,0.4l2-2V3.4C30.2,5,29.4,5.8,29.4,5.9z M30.1,6.4l0.5,0.4
	c0.8-0.8,1.2-1.3,1.2-1.3V4.7C31.2,5.3,30.7,5.9,30.1,6.4z M30.8,6.9l0.6,0.4c0.3-0.3,0.5-0.5,0.5-0.5V5.9h0
	C31.8,5.9,31.5,6.3,30.8,6.9z M31.6,7.5c0.2,0.1,0.2,0.2,0.2,0.2V7.3h0C31.8,7.3,31.8,7.3,31.6,7.5z"/>
<path d="M34.4,0.2h15.5c0,0,0,0,0,0.1v6.2c0,0,0,0,0,0h-4.6v14.9c0,0,0,0-0.1,0h-6.2c0,0,0,0,0,0V6.5h-4.6c0,0,0,0,0,0L34.4,0.2
	C34.4,0.3,34.4,0.2,34.4,0.2z M35.4,1.3v4.2h1.8c3-2.2,4.6-3.3,4.7-3.4C42,2,42.2,1.9,42.5,1.7C42.9,1.4,43,1.3,43,1.3L35.4,1.3
	C35.4,1.3,35.4,1.3,35.4,1.3z M38.1,5.5L38.1,5.5l1.9,0c0,0,0,0,0,0v5.2c2.7-1.5,4.1-2.3,4.2-2.4V5.5c0,0,0,0,0,0h4.6V4.3
	c-4.3-1.1-6.6-1.7-6.8-1.7C39.6,4.4,38.3,5.4,38.1,5.5z M40.1,11.4v3.1h0l1.6-4C40.6,11,40.1,11.3,40.1,11.4z M40.3,15.3l-0.2,0.6
	v4.5h0.2L40.3,15.3L40.3,15.3z M41.3,12.8c-0.5,1.2-0.7,1.8-0.7,1.9v5.7h0.8L41.3,12.8L41.3,12.8z M42.3,10.5l-0.6,1.6v8.3h0.7
	L42.3,10.5L42.3,10.5z M42.6,9.9v10.2c0.4-0.4,0.6-0.7,0.6-0.7V9.6h0C42.8,9.8,42.6,9.9,42.6,9.9z M42.7,2.2c3,0.8,5.1,1.3,6.2,1.6
	V1.3h-5C43.2,1.8,42.8,2.1,42.7,2.2z M43,20.4h1.2v-1.3C44.1,19.2,43.7,19.6,43,20.4z M43.4,9.4v9.7h0c0.4-0.4,0.6-0.6,0.6-0.6V9.1
	C43.6,9.3,43.4,9.4,43.4,9.4z"/>
<path d="M51.5,0.2H67c0,0,0,0,0,0.1v21.1c0,0,0,0,0,0h-6.2c0,0-0.1,0-0.1,0v-7.6h-3v7.6c0,0,0,0-0.1,0h-6.2c0,0,0,0,0,0L51.5,0.2
	C51.4,0.3,51.4,0.2,51.5,0.2z M52.4,1.3v2.8c4.1-1.9,6.1-2.8,6.2-2.8v0H52.4z M52.4,4.7v12.5c0.1,0.1,1.4,1.2,4,3.2h0.2v-7.6
	c0,0,0-0.1,0-0.1h5c0,0,0,0,0,0.1v7.6H66V8.3c0,0-1.9-1.4-5.6-4c-1.8-1.2-2.7-1.9-2.8-2L52.4,4.7z M52.7,18v2.4h0.6v-1.9
	C53.1,18.4,52.9,18.2,52.7,18z M53.6,18.7v1.6h0.6v-1.2C54.1,19.2,53.9,19,53.6,18.7z M54.4,19.5v0.9h0.7V20
	C55,19.9,54.7,19.7,54.4,19.5z M55.4,20.2v0.2h0.2C55.6,20.4,55.5,20.3,55.4,20.2z M56.7,5.5h5c0,0,0,0,0,0v3c0,0,0,0,0,0h-5
	c0,0,0,0,0,0L56.7,5.5C56.6,5.5,56.7,5.5,56.7,5.5z M57.7,6.5v1h3v-1H57.7z M58.1,2.1c0.3,0.2,0.5,0.3,0.5,0.3l1.1-1.1h0
	C58.8,1.8,58.2,2,58.1,2.1z M58.9,2.6L59.4,3c0.5-0.5,1.1-1,1.7-1.7h-0.9C60.2,1.3,59.8,1.7,58.9,2.6z M59.6,3.2
	c0.3,0.2,0.5,0.3,0.5,0.3l2.2-2.2h-0.9C60.7,2,60.1,2.6,59.6,3.2z M60.4,3.7c0,0,0.2,0.1,0.5,0.4h0c0.9-0.9,1.9-1.8,2.8-2.8h-0.9
	C62.4,1.6,61.6,2.4,60.4,3.7z M61.1,4.2l0.5,0.3c1.3-1.3,2.4-2.4,3.3-3.3h-0.9C63.1,2.3,62.1,3.3,61.1,4.2z M61.8,4.8
	c0,0,0.3,0.2,0.6,0.4C64.8,2.9,66,1.7,66,1.7V1.3h-0.6C64.3,2.3,63.2,3.4,61.8,4.8z M62.7,5.3l0.6,0.4C65.1,3.9,66,3,66,3V2.1h0
	C65,3,64,4.1,62.7,5.3z M63.5,5.9c0,0,0.2,0.1,0.5,0.4l2-2V3.4C64.3,5,63.5,5.8,63.5,5.9z M64.2,6.4l0.5,0.4C65.6,6,66,5.5,66,5.5
	V4.7C65.3,5.3,64.8,5.9,64.2,6.4z M64.9,6.9l0.6,0.4C65.8,7,66,6.9,66,6.8V5.9h0C65.9,5.9,65.6,6.3,64.9,6.9z M65.7,7.5
	C65.9,7.6,66,7.7,66,7.7V7.3h0C65.9,7.3,65.9,7.3,65.7,7.5z"/>
<path d="M76,0.2h6.2c0,0,0.1,0,0.1,0.1v7.2c0,0,0,0.1,0,0.1l0,0.1v7.4h9.3c0,0,0,0,0,0.1v6.2c0,0,0,0,0,0H76c0,0,0,0,0,0L76,0.2
	C75.9,0.3,75.9,0.2,76,0.2z M77,1.3v0.2c0,0,0.4,0.4,1.1,1.1v0c-0.3-0.8-0.5-1.2-0.5-1.3H77z M77,1.9v0.9c0.6,0.6,1.2,1.2,1.9,1.9v0
	c-0.3-0.9-0.5-1.4-0.5-1.4L77,1.9z M77,3.2v0.9c0.8,0.8,1.6,1.6,2.5,2.5h0c0,0,0,0,0,0c-0.3-0.8-0.5-1.3-0.5-1.3L77,3.2z M77,4.5
	v0.9c0.5,0.5,1,1,1.6,1.6c0.2-0.1,0.4-0.2,0.6-0.2v0C78.5,6,77.8,5.3,77,4.5z M77,5.8v0.9c0.4,0.4,0.6,0.7,0.7,0.7l0.6-0.2
	C77.9,6.7,77.5,6.2,77,5.8z M77,20.4h0.2c0,0,0.2-0.6,0.7-1.8c2.2-6.2,3.3-9.4,3.4-9.7V6.5h0L77,8.1V20.4z M77,7v0.5
	c0.2-0.1,0.3-0.1,0.4-0.1C77.3,7.4,77.2,7.3,77,7z M81.1,10.6l-3.4,9.8h12.8V19l-5.3-2.8h-4c0,0,0,0,0,0L81.1,10.6L81.1,10.6z
	 M78.2,1.3L78.2,1.3c0.1,0.2,0.7,1.9,1.9,5.1c0.2-0.1,0.6-0.2,1.1-0.4V1.3H78.2z M86.3,16.2L86.3,16.2l4.1,2.2v-2.2H86.3z"/>
<path d="M93,0.2h15.5c0,0,0,0,0,0v21.1c0,0,0,0,0,0H93c0,0,0,0,0,0L93,0.2C93,0.2,93,0.2,93,0.2z M94,1.3v3.3l8.7-3.3v0H94z M94,5.2
	v9.4c2.5-1.7,3.9-2.6,4.2-2.8V5.5c0,0,0,0,0,0h5c0,0,0,0,0,0v10.6c0,0,0,0,0,0h-5c0,0,0,0,0,0v-3.7c-1.8,1.2-2.7,1.8-2.8,1.9
	c2.8,3,4.2,4.7,4.4,4.8l7.8-4.1V7.8c0-0.1-2.3-1.6-6.9-4.6c-0.3-0.2-0.5-0.3-0.5-0.3L94,5.2z M94.2,15.1v5.3h0.6v-5.7h0
	C94.4,14.9,94.2,15.1,94.2,15.1z M95.1,14.8v5.6h0.6v-4.9C95.7,15.5,95.5,15.2,95.1,14.8L95.1,14.8z M96,15.8v4.6h0.7v-3.9
	C96.2,16,96,15.8,96,15.8L96,15.8z M96.9,16.8v3.6h0.5l0.1,0v-2.8C97.6,17.5,97.4,17.2,96.9,16.8z M97.8,17.8v2.4
	c0.5-0.3,0.7-0.4,0.8-0.4v-1.2C98.1,18.1,97.8,17.8,97.8,17.8z M98.6,20.4L98.6,20.4l8.9,0v-2.8c-1.5-0.4-2.2-0.7-2.3-0.7
	C101.3,19,99.1,20.1,98.6,20.4z M98.9,18.9v0.7c0.3-0.1,0.4-0.2,0.4-0.2C99,19.1,98.9,18.9,98.9,18.9z M99.3,6.5v8.7h3c0,0,0,0,0,0
	V6.5H99.3z M100.7,2.6c0.1,0,0.6,0.4,1.6,1.1h0l-1.2-1.2C100.9,2.6,100.7,2.6,100.7,2.6z M101.4,2.3L101.4,2.3
	c1.4,1.5,2.2,2.3,2.3,2.3c0,0,0.9,0.6,2.5,1.7h0l-4.2-4.2C101.7,2.3,101.5,2.3,101.4,2.3z M102.4,2c1.5,1.5,3.2,3.2,5.1,5.1V6.3
	c-1.3-1.3-2.8-2.8-4.5-4.5C102.7,1.9,102.5,1.9,102.4,2z M103.3,1.6c1.4,1.4,2.8,2.8,4.2,4.2v-1l-3.5-3.5L103.3,1.6z M104.4,1.3
	c0.9,0.9,2,2,3.1,3.1V3.5c-0.7-0.7-1.5-1.5-2.2-2.2H104.4z M105.7,1.3c0.6,0.6,1.2,1.3,1.8,1.8V2.2c0,0-0.3-0.3-1-1H105.7z
	 M105.9,16.5c0,0,0.6,0.2,1.6,0.5v-1.3h0C106.5,16.2,106,16.5,105.9,16.5z M107,1.3c0,0,0.2,0.2,0.6,0.5V1.3H107z"/>
<path d="M110.1,0.2h15.5c0,0,0,0,0,0.1v6.1c0,0,0,0,0,0h-9.3v8.7h3V8.9c0,0,0,0,0.1,0h6.2c0,0,0,0,0,0v12.5c0,0,0,0,0,0h-15.5
	c0,0,0,0,0,0L110.1,0.2C110,0.3,110,0.2,110.1,0.2z M111.1,1.3v0.8c0.9,1,1.4,1.4,1.5,1.4c0.4-0.1,0.7-0.2,0.7-0.2l-1.9-1.9v0
	l0.1-0.2H111.1z M111.1,4.5v15.9h0.8c0,0,1.1-2.4,3.1-7c0.2-0.3,0.2-0.5,0.2-0.6V5.5c0,0,0,0,0,0h9.3V4.3L120.3,2L111.1,4.5z
	 M111.1,2.5v0.9c0.2,0.3,0.4,0.4,0.4,0.4l0.7-0.2C112.2,3.6,111.8,3.2,111.1,2.5z M111.1,3.8L111.1,3.8L111.1,3.8
	C111.1,3.9,111.1,3.9,111.1,3.8L111.1,3.8L111.1,3.8z M111.5,1.3c1.3,1.3,2,2,2,2l0.7-0.2c-0.6-0.6-1.2-1.3-1.8-1.8H111.5z
	 M113.2,18.6c-0.4,0.9-0.6,1.4-0.6,1.5v0.3h0.6L113.2,18.6L113.2,18.6z M112.8,1.3l1.7,1.7c0.5-0.1,0.7-0.2,0.7-0.2l-1.5-1.5H112.8z
	 M113.7,17.6c-0.1,0.2-0.1,0.3-0.2,0.5v2.4h0.6v-2C114.2,18.3,114,18.1,113.7,17.6z M120.4,13.4v2.7c0,0,0,0,0,0h-5c0,0,0,0,0,0v-2
	h0c-0.8,1.9-1.2,2.8-1.2,2.8l1.8,3.4h7.1c0.3-0.3,0.9-0.9,1.7-1.7V9.9h-0.8C122.1,11.6,120.9,12.8,120.4,13.4z M114.1,1.3
	c0.9,1,1.4,1.4,1.5,1.4l0.7-0.2v0c-0.2-0.2-0.6-0.6-1.2-1.3H114.1z M114.4,18.9v1.5h0.7v-0.2C115.1,20.2,114.9,19.7,114.4,18.9
	L114.4,18.9z M115.3,1.3l1.2,1.2c0.6-0.1,0.8-0.2,0.8-0.2l-1-0.9H115.3z M116.8,1.3c0,0,0.3,0.3,0.9,0.9c0,0,0.3-0.1,0.7-0.2
	c0,0-0.2-0.2-0.7-0.7H116.8z M118.1,1.3c0,0,0.2,0.2,0.6,0.6c0,0,0.2-0.1,0.7-0.2c0,0-0.1-0.2-0.4-0.4H118.1z M119.4,1.3
	c0.2,0.2,0.3,0.3,0.3,0.3l0.7-0.2v0c0,0,0-0.1-0.1-0.1H119.4z M120.4,9.9v2.7c0.4-0.4,1.3-1.3,2.6-2.7H120.4z M120.6,1.3L120.6,1.3
	c0.1,0,0.2,0,0.2,0v0H120.6z M121.1,1.8L121.1,1.8l3.5,2V1.3h-1.5C122.9,1.3,122.3,1.5,121.1,1.8z M123.7,20.4h0.9v-0.9
	C124.5,19.6,124.2,19.9,123.7,20.4z"/>
<path d="M134.6,0.3h6.2c0,0,0,0,0,0v1c0,0.1,0.5,3.8,1.6,11.2h0c0.9-7.3,1.4-11,1.4-11.2v-1c0,0,0,0,0,0h6.2l0,0
	c-1.7,13.7-2.6,20.7-2.7,21.1h-9.7c0,0-0.1-0.6-0.3-1.9C135.5,6.8,134.5,0.4,134.6,0.3L134.6,0.3z M135.7,1.3c0,0.2,0.1,0.4,0.4,0.6
	c1.1,1.1,2.1,2.1,2.9,2.9c0,0,0.1-0.3,0.2-0.7l-2.8-2.8L135.7,1.3L135.7,1.3z M135.8,2L135.8,2c0.1,0.7,0.2,1,0.2,1l2.7,2.7
	c0-0.1,0.1-0.3,0.2-0.7L135.8,2z M136.1,3.5L136.1,3.5c0.1,0.8,0.2,1.1,0.2,1.1l2.2,2.2l0.2-0.7L136.1,3.5z M136.3,5L136.3,5
	c0.1,0.7,0.2,1.1,0.2,1.1l1.7,1.6c0-0.1,0.1-0.3,0.2-0.7L136.3,5z M136.5,6.5c0.1,0.7,0.2,1.1,0.2,1.1l1.1,1.1h0l0.2-0.7L136.5,6.5
	L136.5,6.5z M136.7,8c0.1,0.8,0.2,1.2,0.2,1.2l0.6,0.6c0.1-0.4,0.2-0.7,0.2-0.7L136.7,8z M136.8,1.3c0.8,0.9,1.7,1.7,2.5,2.5
	c0,0,0.1-0.3,0.2-0.7l-1.8-1.8H136.8z M136.9,9.5c0.1,0.7,0.2,1.1,0.2,1.1l0.1,0.1h0l0.2-0.7L136.9,9.5z M137.9,10.6
	c0,0.1-0.2,0.6-0.5,1.7l1.2,8.1h2.7c0,0,0.3-0.7,1-1.9C139.3,13.2,137.9,10.6,137.9,10.6L137.9,10.6z M140,3.3c0,0-0.6,2.2-1.9,6.5
	c0.1,0.2,2,3.7,5.8,10.5h2.7c0,0,0.1-0.6,0.2-1.8c0.1-0.8,0.6-4.6,1.5-11.4L146.1,4c-1,0.5-1.6,0.7-1.6,0.7L143,16.2l0,0h-1
	c-0.1,0-0.2-0.6-0.3-1.8L140,3.3L140,3.3z M138.1,1.3c0.6,0.6,1.1,1.1,1.5,1.5l0.2-0.7L139,1.3H138.1z M139.4,1.3L139.4,1.3
	c0,0,0.1,0.2,0.4,0.4l0-0.2V1.3c0,0,0,0,0,0H139.4z M141.9,20.4h1.4v0l-0.7-1.3C142.5,19.2,142.2,19.6,141.9,20.4z M144.9,1.3v0.2
	c0,0.1-0.1,1-0.3,2.6h0c2.8-1.2,4.2-1.8,4.2-1.9c0.1-0.5,0.1-0.8,0.1-0.9H144.9z M146.6,3.8c0.1,0.2,0.2,0.3,0.2,0.3V3.7
	C146.7,3.8,146.6,3.8,146.6,3.8z M147.1,3.6v0.9c0.4,0.6,0.6,0.9,0.6,0.9V3.3h0C147.3,3.5,147.1,3.6,147.1,3.6z M148,3.2v2.6
	c0.2,0.3,0.3,0.5,0.3,0.5c0,0,0.2-0.9,0.4-2.8V2.9h0C148.2,3.1,148,3.2,148,3.2z"/>
<path d="M151.6,0.2h15.5c0,0,0,0,0,0.1v6.1c0,0,0,0,0,0h-4.6v8.7h4.6c0,0,0,0,0,0.1v6.2c0,0,0,0,0,0h-15.5c0,0,0,0,0,0v-6.2
	c0,0,0-0.1,0-0.1h4.6V6.5h-4.6c0,0,0,0,0,0L151.6,0.2C151.6,0.3,151.6,0.2,151.6,0.2z M152.6,1.3v0.3c1.3,1.3,2,2,2,2l1.3,0.4
	c-0.9-0.9-1.8-1.8-2.7-2.7H152.6z M152.6,2v0.9c0,0.1,0.3,0.2,1,0.4c0,0,0.1,0.1,0.3,0.1C154,3.3,153.5,2.9,152.6,2z M152.6,3.5v2
	h4.6c0,0,0,0,0,0v4.8c0.1,0.1,1.5,0.8,4.2,2.2V6.4c0,0-0.7-0.3-2.2-0.8C155,4.3,152.8,3.5,152.6,3.5z M152.7,16.2v4.2h0.6v-4.2
	H152.7z M153.5,16.5v3.9h0.6v-3.3c0-0.1-0.1-0.2-0.4-0.5C153.8,16.6,153.7,16.6,153.5,16.5z M153.6,1.3c1.9,2,2.9,2.9,3,2.9
	c0.7,0.2,1.1,0.4,1.2,0.4c-1.2-1.2-2.3-2.4-3.3-3.3H153.6z M157.3,10.9v5.2c0,0,0,0,0,0h-3.2l4.4,4.2h4.9c0.1,0,0.3-0.2,0.7-0.6
	c0.8-0.7,1.2-1.1,1.4-1.2l-1.1-2.4h-2.8c0,0,0,0,0,0v-3C161.4,13.2,160,12.4,157.3,10.9z M154.4,17.3v3.1h0.2
	c0.3-0.7,0.5-1.1,0.5-1.2V18C154.8,17.7,154.6,17.4,154.4,17.3z M154.9,1.3c2.3,2.4,3.5,3.6,3.6,3.6l0.7,0.2c0,0,0.1-0.1,0.3-0.3
	c-1-1-2.1-2.2-3.5-3.5H154.9z M155.9,18.7l-0.7,1.6h2.5C156.6,19.4,156.1,18.8,155.9,18.7z M155.4,18.2v0.5h0
	c0.1-0.2,0.1-0.3,0.1-0.3C155.5,18.3,155.5,18.3,155.4,18.2z M156.3,1.3c0.8,0.8,1.9,1.9,3.3,3.3c0,0,0.2-0.2,0.5-0.5l-2.8-2.8
	H156.3z M157.7,1.3c0.7,0.7,1.6,1.6,2.6,2.6c0.3-0.3,0.5-0.4,0.5-0.4l-2.2-2.2H157.7z M158.9,1.3l2,2c0,0,0.2-0.1,0.5-0.4l-1.6-1.6
	H158.9z M159.7,5.2c0.9,0.3,1.5,0.5,1.8,0.6V5.5c0,0,0,0,0,0h4.6V1.3h-2.3C163.5,1.6,162.1,2.9,159.7,5.2z M160.2,1.3
	c0.2,0.3,0.7,0.7,1.4,1.4c0.3-0.3,0.5-0.4,0.5-0.5l-1-1H160.2z M161.5,1.3c0,0,0.3,0.3,0.8,0.8l0.5-0.4l-0.4-0.3H161.5z M162.8,1.3
	c0,0,0,0.1,0.1,0.2c0,0,0-0.1,0.1-0.2H162.8z M164.2,20.4h1.9v-1.7h0C164.9,19.8,164.3,20.3,164.2,20.4z M164.9,16.2L164.9,16.2
	l0.9,2c0.1,0,0.2-0.1,0.3-0.3v-1.7H164.9z"/>
<path d="M168.7,0.3h15.5c0,0,0,0,0,0v6.2c0,0,0,0,0,0h-9.3v1h9.3c0,0,0,0,0,0v6.2c0,0,0,0.1,0,0.1h-9.3v1.4h9.3c0,0,0,0,0,0v6.2
	c0,0,0,0,0,0h-15.5c0,0,0,0,0,0L168.7,0.3C168.6,0.3,168.7,0.3,168.7,0.3z M169.7,1.3V8c1.1-0.2,1.8-0.4,1.9-0.5l1.6-6.2H169.7z
	 M169.7,8.5v9.9c0,0,0.5,0.4,1.3,1.1l12.2-2.6v-0.7h-9.3c0,0,0,0,0,0v-3.4c0,0,0,0,0,0h2.5c0,0,1.3-0.8,3.8-2.3
	c0.7-0.4,1.1-0.7,1.2-0.7c-0.2-0.2-0.6-0.5-1.2-1.1h-6.3c0,0,0,0,0,0v-1C173.7,7.6,172.3,7.9,169.7,8.5z M169.7,19.1v1.3h0.7v-0.7
	C170.4,19.7,170.2,19.5,169.7,19.1L169.7,19.1z M170.7,19.9v0.5h0.6C170.9,20.1,170.7,19.9,170.7,19.9L170.7,19.9z M171.6,19.9
	L171.6,19.9c0.3,0.4,0.5,0.5,0.6,0.5h0v-0.7L171.6,19.9z M172.1,7.4L172.1,7.4c0.6-0.1,0.9-0.2,0.9-0.3c0,0,0.3-0.3,0.8-0.8V5.6
	c0,0,0,0,0,0h0.7l4.2-4.2v0h-1c-3.6,3.6-5.5,5.4-5.5,5.5C172.3,7,172.2,7.2,172.1,7.4z M172.5,6.2c1.3-1.3,3-2.9,4.9-4.9h-0.8
	c-0.1,0-0.4,0.3-0.9,0.8C173.7,4,172.8,5,172.8,5C172.6,5.7,172.5,6.1,172.5,6.2z M172.5,19.7v0.7h0.6v-0.8
	C172.7,19.6,172.5,19.7,172.5,19.7z M172.9,4.4c1-0.9,2-2,3.1-3.1v0h-0.8c-0.1,0-0.3,0.2-0.7,0.6c-0.9,0.8-1.3,1.3-1.3,1.3
	C173,4,172.9,4.4,172.9,4.4z M173.4,7.1L173.4,7.1l0.5-0.1V6.6C173.8,6.6,173.7,6.8,173.4,7.1z M173.4,2.6c0.4-0.4,0.9-0.8,1.4-1.4
	h-0.9c-0.1,0.1-0.2,0.3-0.3,0.6L173.4,2.6z M173.4,19.5v0.9h0.7v-1h0L173.4,19.5z M174.4,19.3v1.1h0.6v-1.2
	C175,19.2,174.8,19.2,174.4,19.3z M175,5.5L175,5.5l0.9,0c0.2-0.2,1.6-1.6,4.2-4.2v0h-0.9c-0.1,0-0.3,0.2-0.7,0.6
	C177.3,3.2,176.1,4.4,175,5.5z M175.5,19.1v1.3h0.7v-1.5C175.7,19,175.5,19.1,175.5,19.1z M176.3,5.5L176.3,5.5l0.8,0
	c1.4-1.4,2.8-2.8,4.2-4.2h-0.8C179.6,2.2,178.2,3.6,176.3,5.5z M176.4,18.9v1.5h0.6v-1.7C176.6,18.8,176.4,18.9,176.4,18.9z
	 M177.3,18.7v1.7h0.6v-1.8L177.3,18.7z M177.4,12.7L177.4,12.7l5.8,0v-1.3c0-0.1-0.2-0.3-0.6-0.6c-0.4-0.4-0.7-0.7-0.8-0.7
	C179.2,11.7,177.7,12.6,177.4,12.7z M177.6,5.5h0.8c0,0,1.3-1.2,3.7-3.7c0,0-0.1-0.2-0.4-0.4C180.4,2.6,179.1,4,177.6,5.5z
	 M178.2,18.5v1.9h0.7v-2C178.5,18.4,178.3,18.5,178.2,18.5z M178.8,5.5L178.8,5.5l0.9,0c0.1,0,0.3-0.2,0.7-0.7
	c0.9-0.9,1.7-1.7,2.3-2.3L182.3,2C182.2,2.1,181,3.3,178.8,5.5z M179.2,18.3v2.1h0.6v-2.2C179.4,18.3,179.2,18.3,179.2,18.3z
	 M180,18.2v2.2h0.8V18h0C180.3,18.1,180,18.1,180,18.2z M183,2.7c0,0-0.9,0.9-2.8,2.8v0h0.9c0.7-0.6,1.4-1.4,2.2-2.2V2.9
	C183.2,2.9,183.1,2.8,183,2.7z M181,8.6c0.2,0.3,1,0.9,2.2,2h0v-2H181z M181.1,17.9v2.5h0.7v-2.6L181.1,17.9z M181.4,5.5h1.7
	c0,0,0,0,0,0V3.8h0C182.5,4.4,181.9,5,181.4,5.5z M182,17.7v2.7h0.6v-2.8C182.2,17.6,182,17.7,182,17.7z M182.4,1.3L182.4,1.3
	c0,0,0.3,0.3,0.8,0.8h0V1.3c0,0,0,0,0,0H182.4z M182.9,17.5v2.9h0.3v-2.9h0C183.1,17.5,183.1,17.5,182.9,17.5z"/>
<path d="M185.7,0.2h6.2c0,0,0,0,0,0v14.9h1.5V0.2c0,0,0,0,0,0h6.2c0,0,0,0,0,0v14.9h1.5c0,0,0,0,0,0V0.2c0,0,0,0,0,0h6.2
	c0,0,0,0,0,0v21.2c0,0,0,0,0,0h-21.8c0,0,0,0,0,0L185.7,0.2C185.7,0.2,185.7,0.2,185.7,0.2z M186.7,1.2v18.9c5-1.9,7.8-3,8.4-3.2
	c2.1-6.3,3.3-9.9,3.7-10.9V1.6c0-0.1-0.1-0.2-0.3-0.3h-4v14.9c0,0,0,0,0,0H191c0,0,0,0,0,0V5.2c-2.2-2.5-3.3-3.8-3.5-4H186.7z
	 M187.6,20.4L187.6,20.4l6.3,0c0,0,0.4-0.9,1-2.8h0C190.2,19.4,187.8,20.3,187.6,20.4z M188.2,1.2c1.7,2,2.6,3,2.8,3.2V1.2H188.2z
	 M198.7,7.8c-2.8,8.4-4.2,12.6-4.2,12.6h10.2c0,0-1.3-1.4-4-4.2h-1.8c0,0,0,0,0,0L198.7,7.8L198.7,7.8z M202.3,8.2v8c0,0,0,0,0,0
	h-0.9c0.5,0.5,1.2,1.3,2.3,2.4h2.8V4.7h0C203.8,7,202.4,8.1,202.3,8.2z M202.3,1.2v0.9c1,1,2,2,3,3c0.3-0.3,0.4-0.4,0.5-0.4
	C204.8,3.7,203.6,2.5,202.3,1.2z M202.3,2.5v0.9c0.8,0.8,1.5,1.5,2.3,2.3c0,0,0.2-0.1,0.5-0.4L202.3,2.5z M202.3,3.8v0.3
	c0.1,0.1,0.7,0.7,1.8,1.9c0.2-0.1,0.2-0.2,0.2-0.2C203.8,5.2,203.1,4.5,202.3,3.8z M202.3,4.9v2.6c0.8-0.7,1.3-1.1,1.4-1.1v0
	L202.3,4.9z M202.8,1.2c0.9,0.9,2,2,3.3,3.3c0.1-0.1,0.3-0.3,0.5-0.4c-1-1-1.9-1.9-2.9-2.8H202.8z M204.1,1.2
	c0.8,0.8,1.6,1.7,2.5,2.5V2.9c-0.3-0.3-0.8-0.9-1.6-1.6H204.1z M204.5,19.1v0.3c0.4,0.4,0.6,0.6,0.6,0.7v-0.9H204.5z M205.3,1.2
	c0,0,0.4,0.4,1.2,1.2v-1c0,0-0.1-0.1-0.2-0.2H205.3z M205.4,19.1v1.3h0.7v-1.3H205.4z M206.4,19.1v1.3h0.2v-1.3H206.4z"/>
<path d="M209.1,0.3h15.5c0,0,0,0,0,0v6.2c0,0,0,0,0,0h-9.3v1h9.3c0,0,0,0,0,0v6.2c0,0,0,0.1,0,0.1h-9.3v1.4h9.3c0,0,0,0,0,0v6.2
	c0,0,0,0,0,0h-15.5c0,0,0,0,0,0L209.1,0.3C209.1,0.3,209.1,0.3,209.1,0.3z M210.1,1.3V8c1.1-0.2,1.8-0.4,1.9-0.5l1.6-6.2H210.1z
	 M210.1,8.5v9.9c0,0,0.5,0.4,1.3,1.1l12.2-2.6v-0.7h-9.3c0,0,0,0,0,0v-3.4c0,0,0,0,0,0h2.5c0,0,1.3-0.8,3.8-2.3
	c0.7-0.4,1.1-0.7,1.2-0.7c-0.2-0.2-0.6-0.5-1.2-1.1h-6.3c0,0,0,0,0,0v-1C214.1,7.6,212.7,7.9,210.1,8.5z M210.1,19.1v1.3h0.7v-0.7
	C210.8,19.7,210.6,19.5,210.1,19.1L210.1,19.1z M211.1,19.9v0.5h0.6C211.3,20.1,211.1,19.9,211.1,19.9L211.1,19.9z M212,19.9
	L212,19.9c0.3,0.4,0.5,0.5,0.6,0.5h0v-0.7L212,19.9z M212.6,7.4L212.6,7.4c0.6-0.1,0.9-0.2,0.9-0.3c0,0,0.3-0.3,0.8-0.8V5.6
	c0,0,0,0,0,0h0.7l4.2-4.2v0h-1c-3.6,3.6-5.5,5.4-5.5,5.5C212.7,7,212.6,7.2,212.6,7.4z M212.9,6.2c1.3-1.3,3-2.9,4.9-4.9H217
	c-0.1,0-0.4,0.3-0.9,0.8C214.2,4,213.2,5,213.2,5C213,5.7,212.9,6.1,212.9,6.2z M213,19.7v0.7h0.6v-0.8
	C213.2,19.6,213,19.7,213,19.7z M213.4,4.4c1-0.9,2-2,3.1-3.1v0h-0.8c-0.1,0-0.3,0.2-0.7,0.6c-0.9,0.8-1.3,1.3-1.3,1.3
	C213.5,4,213.4,4.4,213.4,4.4z M213.8,7.1L213.8,7.1l0.5-0.1V6.6C214.3,6.6,214.1,6.8,213.8,7.1z M213.8,2.6
	c0.4-0.4,0.9-0.8,1.4-1.4h-0.9c-0.1,0.1-0.2,0.3-0.3,0.6L213.8,2.6z M213.8,19.5v0.9h0.7v-1h0L213.8,19.5z M214.8,19.3v1.1h0.6v-1.2
	C215.4,19.2,215.2,19.2,214.8,19.3z M215.4,5.5L215.4,5.5l0.9,0c0.2-0.2,1.6-1.6,4.2-4.2v0h-0.9c-0.1,0-0.3,0.2-0.7,0.6
	C217.7,3.2,216.5,4.4,215.4,5.5z M215.9,19.1v1.3h0.7v-1.5C216.1,19,215.9,19.1,215.9,19.1z M216.8,5.5L216.8,5.5l0.8,0
	c1.4-1.4,2.8-2.8,4.2-4.2H221C220,2.2,218.6,3.6,216.8,5.5z M216.9,18.9v1.5h0.6v-1.7C217.1,18.8,216.9,18.9,216.9,18.9z
	 M217.8,18.7v1.7h0.6v-1.8L217.8,18.7z M217.9,12.7L217.9,12.7l5.8,0v-1.3c0-0.1-0.2-0.3-0.6-0.6c-0.4-0.4-0.7-0.7-0.8-0.7
	C219.6,11.7,218.2,12.6,217.9,12.7z M218,5.5h0.8c0,0,1.3-1.2,3.7-3.7c0,0-0.1-0.2-0.4-0.4C220.9,2.6,219.5,4,218,5.5z M218.6,18.5
	v1.9h0.7v-2C218.9,18.4,218.7,18.5,218.6,18.5z M219.3,5.5L219.3,5.5l0.9,0c0.1,0,0.3-0.2,0.7-0.7c0.9-0.9,1.7-1.7,2.3-2.3L222.8,2
	C222.6,2.1,221.5,3.3,219.3,5.5z M219.6,18.3v2.1h0.6v-2.2C219.8,18.3,219.6,18.3,219.6,18.3z M220.5,18.2v2.2h0.8V18h0
	C220.7,18.1,220.5,18.1,220.5,18.2z M223.4,2.7c0,0-0.9,0.9-2.8,2.8v0h0.9c0.7-0.6,1.4-1.4,2.2-2.2V2.9
	C223.6,2.9,223.5,2.8,223.4,2.7z M221.4,8.6c0.2,0.3,1,0.9,2.2,2h0v-2H221.4z M221.5,17.9v2.5h0.7v-2.6L221.5,17.9z M221.8,5.5h1.7
	c0,0,0,0,0,0V3.8h0C223,4.4,222.4,5,221.8,5.5z M222.4,17.7v2.7h0.6v-2.8C222.6,17.6,222.4,17.7,222.4,17.7z M222.8,1.3L222.8,1.3
	c0,0,0.3,0.3,0.8,0.8h0V1.3c0,0,0,0,0,0H222.8z M223.3,17.5v2.9h0.3v-2.9h0C223.6,17.5,223.5,17.5,223.3,17.5z"/>
<path d="M226.2,0.2h14c0,0,0,0,0,0.1v7.2h1.5c0,0,0,0,0,0v13.8c0,0,0,0,0,0h-6.2c0,0-0.1,0-0.1,0v-7.6h-3c0,0,0,0,0,0v7.6
	c0,0,0,0-0.1,0h-6.2c0,0,0,0,0,0L226.2,0.2C226.1,0.3,226.1,0.2,226.2,0.2z M227.2,18.3v2.1h4.2v-7.6c0,0,0,0,0,0h5c0,0,0,0,0,0v7.6
	h0.4c0.3-0.3,1.5-2,3.8-4.9V8.6h-1.5c0,0,0,0,0-0.1v-1c-0.2,0.1-3.3,1.6-9.2,4.5L227.2,18.3z M227.2,13.3v3.6h0l2-4.6L227.2,13.3z
	 M227.3,1.3v11.4h0c0.4-0.2,0.6-0.3,0.6-0.3V1.3H227.3z M228.2,1.3v10.9h0c0.4-0.2,0.6-0.3,0.6-0.3V1.3c0,0,0,0,0,0H228.2z
	 M229.4,1.3v10.4c0.4-0.2,0.6-0.3,0.7-0.3v-10H229.4z M230.3,1.3v9.9c0.4-0.2,0.6-0.3,0.6-0.3V1.3H230.3z M231.2,1.3v9.5
	c0.4-0.2,0.6-0.3,0.6-0.3V8.6h-0.4c0,0,0,0,0-0.1v-3c0,0,0,0,0,0h0.4V1.3H231.2z M232.1,1.3v4.2h0.7V1.3H232.1z M232.1,8.6v1.7
	c0.4-0.2,0.6-0.3,0.7-0.3V8.6H232.1z M232.4,6.5v1h1.5v-1H232.4z M233,1.3v4.2h0.6V1.3c0,0,0,0,0,0H233z M233,8.6v1.3
	c0.4-0.2,0.6-0.3,0.6-0.3v-1H233z M233.9,1.3v4.2h0.8V1.3c0,0,0,0,0,0L233.9,1.3C233.9,1.3,233.9,1.3,233.9,1.3z M233.9,8.6v0.8
	c0.1,0,0.3-0.1,0.8-0.4V8.6H233.9z M235,1.3v7.7c0.4-0.2,0.7-0.3,0.7-0.4V1.3c0,0,0,0,0,0H235z M235.9,1.3v7.1l0.6-0.3V1.5
	c0-0.1-0.1-0.2-0.2-0.2L235.9,1.3C235.9,1.3,235.9,1.3,235.9,1.3z M236.8,1.7V8h0c0.4-0.2,0.5-0.3,0.6-0.3V2.3
	C237,1.9,236.8,1.7,236.8,1.7z M237.1,1.3c0,0,0.7,0.7,2,2.1V1.3c0,0,0,0,0,0H237.1z M238.7,18.9l-1.1,1.5h1.9
	C239.1,19.6,238.8,19.1,238.7,18.9z M237.7,2.6v4.9h0c0.4-0.2,0.6-0.3,0.6-0.3v-4C238,2.9,237.8,2.7,237.7,2.6z M238.6,3.6v3.5h0
	c0.3-0.2,0.5-0.2,0.5-0.3V4.2C239.1,4.1,239,3.9,238.6,3.6z M239.1,18.4c0,0.1,0.4,0.8,1,2h0.6v-4C240.6,16.4,240.1,17.1,239.1,18.4
	z"/>
</svg>
